<svg width="218" height="36" viewBox="0 0 218 36" fill="none" xmlns="http://www.w3.org/2000/svg">
<path id="Arrow 1" d="M21.8699 20.9588L22.0867 21.4094L21.8699 20.9588ZM192.707 19.737L192.918 19.2834L192.707 19.737ZM217.172 31.4695C217.431 31.3745 217.564 31.0872 217.469 30.828L215.921 26.6027C215.826 26.3435 215.539 26.2103 215.28 26.3053C215.02 26.4003 214.887 26.6875 214.982 26.9468L216.358 30.7026L212.603 32.0789C212.343 32.1739 212.21 32.4611 212.305 32.7204C212.4 32.9797 212.688 33.1129 212.947 33.0178L217.172 31.4695ZM1.21678 31.4506L6.43426 28.9403L6.0007 28.0391L0.78322 30.5494L1.21678 31.4506ZM16.8692 23.9197L22.0867 21.4094L21.6531 20.5082L16.4357 23.0185L16.8692 23.9197ZM22.0867 21.4094C23.5582 20.7014 25.0362 20.0125 26.5205 19.3426L26.1091 18.4311C24.6174 19.1044 23.132 19.7967 21.6531 20.5082L22.0867 21.4094ZM35.5321 15.5382C38.5727 14.3415 41.6358 13.2222 44.7183 12.1805L44.3982 11.2331C41.3002 12.2801 38.2218 13.405 35.1658 14.6077L35.5321 15.5382ZM54.0577 9.27744C57.1988 8.38496 60.3567 7.57111 63.5285 6.83591L63.3027 5.86173C60.115 6.60062 56.9412 7.41855 53.7844 8.31551L54.0577 9.27744ZM73.1085 4.86159C76.3201 4.28145 79.5427 3.78072 82.7733 3.35941L82.644 2.36781C79.3972 2.79123 76.1584 3.29447 72.9307 3.87752L73.1085 4.86159ZM92.5 2.3327C95.751 2.06991 99.0071 1.88692 102.265 1.78375L102.234 0.784254C98.9591 0.887938 95.6867 1.07184 92.4194 1.33596L92.5 2.3327ZM112.046 1.71381C115.305 1.77036 118.564 1.90676 121.818 2.12303L121.884 1.12523C118.614 0.907879 115.339 0.770794 112.063 0.713957L112.046 1.71381ZM131.558 3.01052C134.795 3.38557 138.024 3.84016 141.244 4.37431L141.407 3.3878C138.172 2.85097 134.926 2.3941 131.674 2.01716L131.558 3.01052ZM150.851 6.2114C154.033 6.90116 157.202 7.66976 160.356 8.51722L160.615 7.55148C157.446 6.69977 154.261 5.92731 151.063 5.23409L150.851 6.2114ZM169.736 11.2864C172.833 12.2839 175.912 13.3593 178.969 14.5124L179.322 13.5767C176.249 12.4178 173.155 11.3371 170.042 10.3345L169.736 11.2864ZM188.034 18.1875C189.528 18.836 191.016 19.5038 192.497 20.1906L192.918 19.2834C191.429 18.5931 189.934 17.922 188.432 17.2702L188.034 18.1875ZM192.497 20.1906L198.57 23.0064L198.991 22.0991L192.918 19.2834L192.497 20.1906ZM210.717 28.6379L216.79 31.4536L217.21 30.5464L211.137 27.7306L210.717 28.6379ZM21.8699 20.9588L22.3035 21.8599L21.8699 20.9588ZM192.707 19.737L193.128 18.8298L192.707 19.737ZM217.344 31.9389C217.863 31.7489 218.129 31.1745 217.939 30.6559L214.842 22.2055C214.652 21.6869 214.078 21.4206 213.559 21.6106C213.041 21.8006 212.774 22.3751 212.964 22.8936L215.717 30.4051L208.205 33.1578C207.687 33.3478 207.421 33.9223 207.611 34.4408C207.801 34.9594 208.375 35.2257 208.894 35.0357L217.344 31.9389ZM1.43356 31.9011L6.65104 29.3908L5.78392 27.5886L0.56644 30.0989L1.43356 31.9011ZM17.086 24.3702L22.3035 21.8599L21.4364 20.0577L16.2189 22.568L17.086 24.3702ZM22.3035 21.8599C23.7713 21.1537 25.2456 20.4665 26.7261 19.7983L25.9034 17.9754C24.408 18.6503 22.9189 19.3444 21.4364 20.0577L22.3035 21.8599ZM35.7152 16.0035C38.7482 14.8098 41.8036 13.6933 44.8784 12.6542L44.2381 10.7594C41.1323 11.809 38.0463 12.9367 34.9827 14.1424L35.7152 16.0035ZM54.1944 9.7584C57.3276 8.86816 60.4775 8.05635 63.6414 7.32299L63.1898 5.37465C59.9941 6.11538 56.8124 6.93535 53.6477 7.83455L54.1944 9.7584ZM73.1974 5.35363C76.4009 4.77494 79.6154 4.27547 82.838 3.85522L82.5794 1.87201C79.3244 2.29648 76.0776 2.80098 72.8419 3.38548L73.1974 5.35363ZM92.5402 2.83108C95.7831 2.56894 99.0311 2.38641 102.281 2.2835L102.218 0.284506C98.9351 0.388447 95.6546 0.572811 92.3791 0.837582L92.5402 2.83108ZM112.037 2.21373C115.288 2.27014 118.539 2.4062 121.785 2.62193L121.918 0.626331C118.639 0.408436 115.356 0.271011 112.072 0.214031L112.037 2.21373ZM131.501 3.50719C134.729 3.88131 137.95 4.33476 141.162 4.86757L141.489 2.89454C138.245 2.35637 134.992 1.89837 131.731 1.52049L131.501 3.50719ZM150.745 6.70005C153.919 7.38808 157.08 8.15475 160.226 9.00009L160.745 7.06861C157.568 6.21478 154.375 5.44039 151.169 4.74544L150.745 6.70005ZM169.582 11.7623C172.672 12.7574 175.743 13.83 178.793 14.9802L179.498 13.1089C176.418 11.9471 173.316 10.8637 170.196 9.85862L169.582 11.7623ZM187.835 18.6461C189.325 19.293 190.809 19.9591 192.287 20.6442L193.128 18.8298C191.635 18.1378 190.136 17.465 188.632 16.8116L187.835 18.6461ZM192.287 20.6442L198.36 23.46L199.201 21.6455L193.128 18.8298L192.287 20.6442ZM210.506 29.0915L216.579 31.9072L217.421 30.0928L211.347 27.277L210.506 29.0915Z" fill="black"/>
</svg>
