<svg width="110" height="110" viewBox="0 0 110 110" fill="none" xmlns="http://www.w3.org/2000/svg">
<g id="icon ferdi">
<path id="Vector" d="M93.5 92.9501V79.2001C93.5 75.3501 92.95 71.5001 90.75 67.6501C88.55 63.8001 85.8 60.5001 81.95 58.3001C78.1 55.5501 69.85 55.0001 66 55.0001H55H44C39.6 55.0001 31.35 55.5501 27.5 58.3001C23.65 60.5001 21.45 63.8001 19.25 67.6501C17.05 71.5001 16.5 74.8 16.5 79.2001V92.9501C16.5 92.9501 30.8 99.0001 55 99.0001C79.2 99.0001 93.5 92.9501 93.5 92.9501ZM55 11.55C44.55 11.55 38.5 21.4501 40.15 32.4501C41.8 43.4501 47.3 51.1501 55 51.1501C62.7 51.1501 68.2 43.4501 69.85 32.4501C71.5 20.9001 65.45 11.55 55 11.55Z" fill="white"/>
</g>
</svg>
