<svg width="28" height="28" viewBox="0 0 28 28" fill="none" xmlns="http://www.w3.org/2000/svg">
<g id="icon lampa">
<path id="Vector" d="M11.6667 22.75H16.3334M12.4445 25.6667H15.5556" stroke="white" stroke-width="1.5" stroke-linecap="round"/>
<path id="Vector_2" d="M8.64569 15.9605L9.93374 17.1729C10.2951 17.513 10.5 17.9872 10.5 18.4835C10.5 19.229 11.1043 19.8333 11.8498 19.8333H16.1502C16.8957 19.8333 17.5 19.229 17.5 18.4835C17.5 17.9872 17.7049 17.513 18.0663 17.1729L19.3543 15.9605C21.1524 14.2552 22.1565 12.0148 22.1666 9.68557L22.1667 9.58773C22.1667 5.60803 18.5103 2.33331 14 2.33331C9.48968 2.33331 5.83334 5.60803 5.83334 9.58773L5.83342 9.68557C5.84355 12.0148 6.84764 14.2552 8.64569 15.9605Z" stroke="white" stroke-width="1.5"/>
</g>
</svg>
