<svg width="28" height="28" viewBox="0 0 28 28" fill="none" xmlns="http://www.w3.org/2000/svg">
<g id="icon statistik ">
<path id="Vector" d="M25.6667 25.6667H14C8.50028 25.6667 5.75042 25.6667 4.04188 23.9581C2.33334 22.2496 2.33334 19.4997 2.33334 14V2.33334" stroke="white" stroke-width="1.5" stroke-linecap="round"/>
<path id="Vector_2" d="M22.1669 8.16666L18.5292 12.7475C17.972 13.4491 17.6933 13.8 17.3735 13.971C16.8817 14.2339 16.2941 14.2467 15.7913 14.0054C15.4643 13.8485 15.1707 13.5101 14.5835 12.8333C13.9963 12.1565 13.7027 11.8181 13.3757 11.6612C12.873 11.42 12.2853 11.4327 11.7936 11.6956C11.4737 11.8666 11.1951 12.2175 10.6379 12.9191L7 17.5" stroke="white" stroke-width="1.5" stroke-linecap="round"/>
</g>
</svg>
