<svg width="56" height="57" viewBox="0 0 56 57" fill="none" xmlns="http://www.w3.org/2000/svg">
<g id="Startup icon">
<path id="Vector" d="M51.3334 13.0188L52.3334 13.0188V13.0188H51.3334ZM22.0606 31.54L22.7662 30.8314L22.0606 31.54ZM22.0606 20.4355L22.7662 21.1441L22.0606 20.4355ZM36 34.3162L35.2944 33.6076L36 34.3162ZM24.8485 34.3162L24.1429 35.0248L24.8485 34.3162ZM47.869 22.4971L48.5746 23.2057L47.869 22.4971ZM51.3333 14.1687L50.3333 14.1687V14.1687H51.3333ZM33.9296 8.61643L33.224 7.90783L33.9296 8.61643ZM28.342 29.4725C28.7333 29.0828 28.7346 28.4496 28.3449 28.0583C27.9552 27.6669 27.3221 27.6656 26.9307 28.0553L28.342 29.4725ZM17.9875 24.4914L18.6941 23.7839L18.6931 23.7828L17.9875 24.4914ZM27.0935 15.7223C27.5581 16.0209 28.1768 15.8864 28.4755 15.4218C28.7741 14.9573 28.6396 14.3386 28.175 14.0399L27.0935 15.7223ZM26.357 14.06L25.8162 14.9012V14.9012L26.357 14.06ZM21.1407 11.3867L21.2867 10.3974L21.1407 11.3867ZM11.1907 17.3789L11.8963 18.0875H11.8963L11.1907 17.3789ZM17.5126 11.8498L17.8955 12.7736V12.7736L17.5126 11.8498ZM12.4858 20.2231L12.8538 19.2933L12.8538 19.2933L12.4858 20.2231ZM12.736 20.3231L12.3554 21.2478L12.736 20.3231ZM16.0372 22.5494L16.7428 21.8408L16.0372 22.5494ZM15.846 22.3602L15.15 23.0783L15.846 22.3602ZM11.7172 19.9189L11.3492 20.8487L11.3492 20.8487L11.7172 19.9189ZM32.0485 38.6207L31.3418 39.3282C31.3573 39.3437 31.3732 39.3586 31.3897 39.373L32.0485 38.6207ZM42.4169 28.222C42.1165 27.7586 41.4973 27.6264 41.0339 27.9268C40.5704 28.2273 40.4383 28.8465 40.7387 29.3099L42.4169 28.222ZM42.4024 30.0379L41.5633 30.5818V30.5818L42.4024 30.0379ZM45.087 35.2322L46.0761 35.085L45.087 35.2322ZM39.0695 45.1403L39.7751 45.8489L39.7751 45.8488L39.0695 45.1403ZM44.622 38.845L45.5446 39.2306L44.622 38.845ZM36.614 44.8546L37.5428 44.4839L36.614 44.8546ZM35.6514 42.6408L34.7749 43.1222L35.6514 42.6408ZM33.1099 39.5502L33.8155 38.8416L33.7928 38.819L33.7687 38.7979L33.1099 39.5502ZM34.7703 41.307L35.557 40.6897L34.7703 41.307ZM38.8989 45.3101L38.1933 44.6015L38.1933 44.6015L38.8989 45.3101ZM31.4776 38.0505L31.1324 37.112L31.4776 38.0505ZM18.3452 24.8488L19.2729 25.2222L18.3452 24.8488ZM13.6525 31.2761C14.0433 30.8858 14.0437 30.2526 13.6534 29.8619C13.2631 29.4711 12.6299 29.4707 12.2392 29.861L13.6525 31.2761ZM8.99844 34.5111L8.29176 33.8036L8.99844 34.5111ZM5.4099 30.927L4.70322 30.2194H4.70322L5.4099 30.927ZM6.47543 31.2761C6.86619 30.8858 6.86658 30.2526 6.47629 29.8619C6.086 29.4711 5.45284 29.4707 5.06208 29.861L6.47543 31.2761ZM26.55 44.2718C26.9407 43.8815 26.9411 43.2484 26.5508 42.8576C26.1605 42.4668 25.5274 42.4665 25.1366 42.8567L26.55 44.2718ZM21.8959 47.5069L22.6026 48.2144L21.8959 47.5069ZM25.4844 51.091L26.1911 51.7986H26.1911L25.4844 51.091ZM26.55 51.4402C26.9407 51.0499 26.9411 50.4167 26.5508 50.0259C26.1605 49.6352 25.5274 49.6348 25.1366 50.0251L26.55 51.4402ZM24.2795 40.0698C24.67 39.6793 24.67 39.0461 24.2795 38.6556C23.8889 38.2651 23.2558 38.2651 22.8652 38.6556L24.2795 40.0698ZM17.9596 43.5612C17.5691 43.9518 17.5691 44.5849 17.9596 44.9755C18.3501 45.366 18.9833 45.366 19.3738 44.9755L17.9596 43.5612ZM17.8028 33.601C18.1933 33.2105 18.1933 32.5773 17.8028 32.1868C17.4123 31.7963 16.7791 31.7963 16.3886 32.1868L17.8028 33.601ZM11.4491 37.1262C11.0586 37.5168 11.0586 38.1499 11.4491 38.5405C11.8397 38.931 12.4728 38.931 12.8634 38.5405L11.4491 37.1262ZM16.8833 40.9874C17.2781 40.6013 17.2852 39.9681 16.899 39.5733C16.5129 39.1784 15.8797 39.1714 15.4849 39.5575L16.8833 40.9874ZM11.4959 43.4587C11.101 43.8449 11.094 44.478 11.4801 44.8729C11.8663 45.2677 12.4994 45.2748 12.8943 44.8886L11.4959 43.4587ZM47.1634 21.7885L35.2944 33.6076L36.7056 35.0248L48.5746 23.2057L47.1634 21.7885ZM25.5541 33.6076L22.7662 30.8314L21.355 32.2486L24.1429 35.0248L25.5541 33.6076ZM22.7662 21.1441L34.6352 9.32503L33.224 7.90783L21.355 19.7269L22.7662 21.1441ZM42.2933 6.16669H43.448V4.16669H42.2933V6.16669ZM50.3334 13.0188L50.3333 14.1687L52.3333 14.1687L52.3334 13.0188L50.3334 13.0188ZM43.448 6.16669C45.3348 6.16669 46.6497 6.16879 47.6415 6.30158C48.605 6.43058 49.1125 6.66626 49.473 7.0252L50.8842 5.608C50.0899 4.81703 49.0907 4.47775 47.9069 4.31927C46.7515 4.16458 45.2785 4.16669 43.448 4.16669V6.16669ZM52.3334 13.0188C52.3334 11.1964 52.3355 9.72863 52.18 8.57705C52.0206 7.39627 51.6791 6.39956 50.8842 5.608L49.473 7.0252C49.8328 7.38356 50.0687 7.88719 50.198 8.84465C50.3312 9.83131 50.3334 11.1397 50.3334 13.0188H52.3334ZM22.7662 30.8314C21.4319 29.5028 20.5041 28.5758 19.8974 27.784C19.3082 27.0151 19.1179 26.493 19.1179 25.9877H17.1179C17.1179 27.1087 17.5847 28.0541 18.3098 29.0004C19.0173 29.9238 20.0608 30.9599 21.355 32.2486L22.7662 30.8314ZM24.1429 35.0248C25.4371 36.3135 26.4774 37.3525 27.4046 38.057C28.3551 38.7791 29.3024 39.2422 30.4242 39.2422V37.2422C29.9129 37.2422 29.3866 37.051 28.6146 36.4644C27.8192 35.8602 26.8883 34.9362 25.5541 33.6076L24.1429 35.0248ZM48.5746 23.2057C50.2259 21.5614 51.262 20.5548 51.8065 19.2458L49.9599 18.4776C49.604 19.3331 48.9308 20.0286 47.1634 21.7885L48.5746 23.2057ZM50.3333 14.1687C50.3333 16.6577 50.3155 17.6226 49.9599 18.4776L51.8065 19.2458C52.3512 17.9363 52.3333 16.494 52.3333 14.1687H50.3333ZM34.6352 9.32503C36.4021 7.56557 37.1011 6.89438 37.9617 6.53942L37.1991 4.69052C35.886 5.23211 34.8757 6.26304 33.224 7.90783L34.6352 9.32503ZM42.2933 4.16669C39.9572 4.16669 38.5117 4.14911 37.1991 4.69052L37.9617 6.53942C38.8228 6.18426 39.7946 6.16669 42.2933 6.16669V4.16669ZM24.1601 33.6367L28.342 29.4725L26.9307 28.0553L22.7489 32.2195L24.1601 33.6367ZM28.175 14.0399L26.8977 13.2188L25.8162 14.9012L27.0935 15.7223L28.175 14.0399ZM26.8977 13.2188C25.6295 12.4036 24.631 11.7609 23.7767 11.3011C22.9099 10.8346 22.1313 10.5221 21.2867 10.3974L20.9947 12.376C21.5229 12.454 22.0714 12.6546 22.8289 13.0623C23.599 13.4767 24.5222 14.0693 25.8162 14.9012L26.8977 13.2188ZM11.8963 18.0875C13.0373 16.9514 14.2718 15.7223 15.3838 14.7091C15.9395 14.2028 16.4527 13.7614 16.8987 13.4181C17.3602 13.0628 17.6926 12.8577 17.8955 12.7736L17.1298 10.926C16.6738 11.1149 16.1707 11.4545 15.6787 11.8333C15.1712 12.224 14.6126 12.7061 14.0368 13.2308C12.8857 14.2795 11.6182 15.542 10.4851 16.6703L11.8963 18.0875ZM21.2867 10.3974C19.8919 10.1915 18.4541 10.3772 17.1298 10.926L17.8955 12.7736C18.8953 12.3593 19.9681 12.2245 20.9947 12.376L21.2867 10.3974ZM11.3492 20.8487L12.1178 21.1529L12.8538 19.2933L12.0852 18.9891L11.3492 20.8487ZM15.3316 23.258L17.2818 25.2L18.6931 23.7828L16.7428 21.8408L15.3316 23.258ZM12.1178 21.1529C12.2458 21.2035 12.3013 21.2255 12.3554 21.2478L13.1165 19.3983C13.047 19.3697 12.9769 19.342 12.8538 19.2933L12.1178 21.1529ZM16.7428 21.8408C16.6491 21.7474 16.5958 21.6944 16.5419 21.6421L15.15 23.0783C15.192 23.119 15.2343 23.1611 15.3316 23.258L16.7428 21.8408ZM12.3554 21.2478C13.3955 21.6758 14.3439 22.2971 15.15 23.0783L16.5419 21.6421C15.5534 20.6841 14.3908 19.9227 13.1165 19.3983L12.3554 21.2478ZM10.4851 16.6703C9.18026 17.9696 9.64068 20.1725 11.3492 20.8487L12.0852 18.9891C11.7111 18.841 11.6165 18.3662 11.8963 18.0875L10.4851 16.6703ZM40.7387 29.3099L41.5633 30.5818L43.2415 29.4939L42.4169 28.222L40.7387 29.3099ZM38.3639 44.4317L38.1933 44.6015L39.6045 46.0187L39.7751 45.8489L38.3639 44.4317ZM41.5633 30.5818C42.3987 31.8705 42.9937 32.7896 43.4098 33.5562C43.8191 34.3102 44.0199 34.8552 44.0979 35.3794L46.0761 35.085C45.9507 34.2421 45.6362 33.4656 45.1676 32.6022C44.7057 31.7512 44.0602 30.7567 43.2415 29.4939L41.5633 30.5818ZM39.7751 45.8488C40.9082 44.7205 42.176 43.4583 43.2292 42.3121C43.756 41.7387 44.2403 41.1824 44.6327 40.677C45.0131 40.1871 45.3545 39.6856 45.5446 39.2306L43.6993 38.4594C43.6153 38.6604 43.4098 38.9908 43.0529 39.4505C42.7082 39.8946 42.265 40.4055 41.7565 40.9589C40.7391 42.0661 39.5048 43.2955 38.3639 44.4317L39.7751 45.8488ZM44.0979 35.3794C44.2497 36.3993 44.1147 37.4653 43.6993 38.4594L45.5446 39.2306C46.0964 37.9103 46.2832 36.4763 46.0761 35.085L44.0979 35.3794ZM33.7687 38.7979L32.7073 37.8684L31.3897 39.373L32.4511 40.3025L33.7687 38.7979ZM37.5428 44.4839C37.1024 43.3807 36.8533 42.752 36.5279 42.1594L34.7749 43.1222C35.0278 43.5827 35.2276 44.0788 35.6852 45.2253L37.5428 44.4839ZM32.4043 40.2588C33.2804 41.1312 33.6589 41.5105 33.9836 41.9243L35.557 40.6897C35.1396 40.1577 34.6586 39.6811 33.8155 38.8416L32.4043 40.2588ZM36.5279 42.1594C36.2449 41.644 35.9202 41.1525 35.557 40.6897L33.9836 41.9243C34.2796 42.3015 34.5442 42.7022 34.7749 43.1222L36.5279 42.1594ZM40.8701 19.7269C39.7206 20.8715 37.8551 20.8715 36.7056 19.7269L35.2944 21.1441C37.2243 23.0658 40.3515 23.0658 42.2814 21.1441L40.8701 19.7269ZM36.7056 19.7269C35.5584 18.5845 35.5584 16.7341 36.7056 15.5918L35.2944 14.1746C33.3622 16.0987 33.3622 19.22 35.2944 21.1441L36.7056 19.7269ZM36.7056 15.5918C37.8551 14.4471 39.7206 14.4471 40.8701 15.5918L42.2814 14.1746C40.3515 12.2528 37.2243 12.2528 35.2944 14.1746L36.7056 15.5918ZM40.8701 15.5918C42.0173 16.7341 42.0173 18.5845 40.8701 19.7269L42.2814 21.1441C44.2136 19.22 44.2136 16.0987 42.2814 14.1746L40.8701 15.5918ZM38.1933 44.6015C37.9841 44.8098 37.636 44.7175 37.5428 44.4839L35.6852 45.2253C36.323 46.8232 38.4032 47.215 39.6045 46.0187L38.1933 44.6015ZM35.2944 33.6076C34.2612 34.6363 33.4654 35.4281 32.777 36.0218C32.087 36.617 31.5765 36.9487 31.1324 37.112L31.8229 38.989C32.6034 38.7019 33.3302 38.1859 34.0833 37.5363C34.8381 36.8852 35.6911 36.035 36.7056 35.0248L35.2944 33.6076ZM31.1324 37.112C30.8899 37.2012 30.6613 37.2422 30.4242 37.2422V39.2422C30.9088 39.2422 31.3708 39.1554 31.8229 38.989L31.1324 37.112ZM32.7552 37.9132L32.1843 37.343L30.771 38.7581L31.3418 39.3282L32.7552 37.9132ZM21.355 19.7269C20.365 20.7127 19.5285 21.545 18.882 22.2818C18.2374 23.0165 17.7203 23.7233 17.4176 24.4753L19.2729 25.2222C19.4497 24.7831 19.7916 24.2777 20.3855 23.6008C20.9775 22.926 21.7589 22.1471 22.7662 21.1441L21.355 19.7269ZM17.4176 24.4753C17.2216 24.962 17.1179 25.4606 17.1179 25.9877H19.1179C19.1179 25.734 19.1657 25.4883 19.2729 25.2222L17.4176 24.4753ZM17.2808 25.199L17.6385 25.5563L19.0519 24.1412L18.6941 23.7839L17.2808 25.199ZM12.2392 29.861L8.29176 33.8036L9.70511 35.2187L13.6525 31.2761L12.2392 29.861ZM6.11657 31.6345L6.47543 31.2761L5.06208 29.861L4.70322 30.2194L6.11657 31.6345ZM6.11657 33.8036C5.51672 33.2045 5.51672 32.2336 6.11657 31.6345L4.70322 30.2194C3.32118 31.5998 3.32118 33.8383 4.70322 35.2187L6.11657 33.8036ZM8.29176 33.8036C7.69124 34.4034 6.7171 34.4034 6.11657 33.8036L4.70322 35.2187C6.08459 36.5984 8.32374 36.5984 9.70511 35.2187L8.29176 33.8036ZM25.1366 42.8567L21.1892 46.7993L22.6026 48.2144L26.55 44.2718L25.1366 42.8567ZM26.1911 51.7986L26.55 51.4402L25.1366 50.0251L24.7778 50.3835L26.1911 51.7986ZM21.1892 51.7986C22.5706 53.1783 24.8097 53.1783 26.1911 51.7986L24.7778 50.3835C24.1772 50.9833 23.2031 50.9833 22.6026 50.3835L21.1892 51.7986ZM21.1892 46.7993C19.8072 48.1797 19.8072 50.4182 21.1892 51.7986L22.6026 50.3835C22.0027 49.7844 22.0027 48.8135 22.6026 48.2144L21.1892 46.7993ZM22.8652 38.6556L17.9596 43.5612L19.3738 44.9755L24.2795 40.0698L22.8652 38.6556ZM16.3886 32.1868L11.4491 37.1262L12.8634 38.5405L17.8028 33.601L16.3886 32.1868ZM15.4849 39.5575L11.4959 43.4587L12.8943 44.8886L16.8833 40.9874L15.4849 39.5575Z" fill="white"/>
</g>
</svg>
